<mxfile host="app.diagrams.net" agent="Mozilla/5.0 (Windows NT 10.0; Win64; x64) AppleWebKit/537.36 (KHTML, like Gecko) Chrome/137.0.0.0 Safari/537.36" version="27.1.4">
  <diagram name="Page-1" id="nxPZ7CeZJwxo2JzfroUO">
    <mxGraphModel dx="552" dy="1538" grid="1" gridSize="10" guides="1" tooltips="1" connect="1" arrows="1" fold="1" page="1" pageScale="1" pageWidth="827" pageHeight="1169" math="0" shadow="0">
      <root>
        <mxCell id="0" />
        <mxCell id="1" parent="0" />
        <mxCell id="Kg88kPYiz1ctyF-9kfCM-7" value="" style="swimlane;startSize=0;" vertex="1" parent="1">
          <mxGeometry x="70" y="-1160" width="690" height="1140" as="geometry" />
        </mxCell>
        <mxCell id="Kg88kPYiz1ctyF-9kfCM-8" value="Sistem Pengelolaan Pegawai Pemerintah&lt;div&gt;&amp;nbsp;Kabupaten Ketapang&lt;/div&gt;" style="text;html=1;align=center;verticalAlign=middle;resizable=0;points=[];autosize=1;strokeColor=none;fillColor=none;" vertex="1" parent="Kg88kPYiz1ctyF-9kfCM-7">
          <mxGeometry x="225" y="10" width="240" height="40" as="geometry" />
        </mxCell>
        <mxCell id="Kg88kPYiz1ctyF-9kfCM-9" value="Login" style="ellipse;whiteSpace=wrap;html=1;" vertex="1" parent="Kg88kPYiz1ctyF-9kfCM-7">
          <mxGeometry x="260" y="60" width="50" height="30" as="geometry" />
        </mxCell>
        <mxCell id="Kg88kPYiz1ctyF-9kfCM-12" value="Logout" style="ellipse;whiteSpace=wrap;html=1;" vertex="1" parent="Kg88kPYiz1ctyF-9kfCM-7">
          <mxGeometry x="380" y="60" width="50" height="30" as="geometry" />
        </mxCell>
        <mxCell id="Kg88kPYiz1ctyF-9kfCM-15" style="edgeStyle=orthogonalEdgeStyle;rounded=0;orthogonalLoop=1;jettySize=auto;html=1;exitX=0;exitY=0;exitDx=0;exitDy=0;entryX=0.5;entryY=1;entryDx=0;entryDy=0;" edge="1" parent="Kg88kPYiz1ctyF-9kfCM-7" source="Kg88kPYiz1ctyF-9kfCM-13">
          <mxGeometry relative="1" as="geometry">
            <mxPoint x="284" y="90" as="targetPoint" />
          </mxGeometry>
        </mxCell>
        <mxCell id="Kg88kPYiz1ctyF-9kfCM-13" value="Validasi" style="ellipse;whiteSpace=wrap;html=1;" vertex="1" parent="Kg88kPYiz1ctyF-9kfCM-7">
          <mxGeometry x="279" y="109" width="130" height="40" as="geometry" />
        </mxCell>
        <mxCell id="Kg88kPYiz1ctyF-9kfCM-16" style="edgeStyle=orthogonalEdgeStyle;rounded=0;orthogonalLoop=1;jettySize=auto;html=1;exitX=1;exitY=0;exitDx=0;exitDy=0;entryX=0.407;entryY=1.022;entryDx=0;entryDy=0;entryPerimeter=0;" edge="1" parent="Kg88kPYiz1ctyF-9kfCM-7" source="Kg88kPYiz1ctyF-9kfCM-13">
          <mxGeometry relative="1" as="geometry">
            <mxPoint x="399.35000000000014" y="90.65999999999985" as="targetPoint" />
          </mxGeometry>
        </mxCell>
        <mxCell id="Kg88kPYiz1ctyF-9kfCM-21" value="Manajemen Hak Akses Admin" style="ellipse;whiteSpace=wrap;html=1;" vertex="1" parent="Kg88kPYiz1ctyF-9kfCM-7">
          <mxGeometry x="285" y="170" width="120" height="70" as="geometry" />
        </mxCell>
        <mxCell id="Kg88kPYiz1ctyF-9kfCM-25" value="Lihat Akun" style="ellipse;whiteSpace=wrap;html=1;" vertex="1" parent="Kg88kPYiz1ctyF-9kfCM-7">
          <mxGeometry x="400" y="230" width="50" height="30" as="geometry" />
        </mxCell>
        <mxCell id="Kg88kPYiz1ctyF-9kfCM-24" value="Hapus Akun" style="ellipse;whiteSpace=wrap;html=1;" vertex="1" parent="Kg88kPYiz1ctyF-9kfCM-7">
          <mxGeometry x="350" y="250" width="50" height="30" as="geometry" />
        </mxCell>
        <mxCell id="Kg88kPYiz1ctyF-9kfCM-22" value="&lt;font style=&quot;font-size: 8px;&quot;&gt;Tambah Akun&lt;/font&gt;" style="ellipse;whiteSpace=wrap;html=1;" vertex="1" parent="Kg88kPYiz1ctyF-9kfCM-7">
          <mxGeometry x="240" y="230" width="50" height="30" as="geometry" />
        </mxCell>
        <mxCell id="Kg88kPYiz1ctyF-9kfCM-17" value="Actor" style="shape=umlActor;verticalLabelPosition=bottom;verticalAlign=top;html=1;outlineConnect=0;" vertex="1" parent="1">
          <mxGeometry x="30" y="-880" width="30" height="60" as="geometry" />
        </mxCell>
        <mxCell id="Kg88kPYiz1ctyF-9kfCM-23" value="edit Akun" style="ellipse;whiteSpace=wrap;html=1;" vertex="1" parent="1">
          <mxGeometry x="360" y="-910" width="50" height="30" as="geometry" />
        </mxCell>
      </root>
    </mxGraphModel>
  </diagram>
</mxfile>
